# xmcd
#
# Track frame offsets: 
#        150
#        17847
#        32232
#        48022
#        63845
#        77712
#        94100
#        106082
#        119165
#        154725
#        174892
#
# Disc length: 2462 seconds
#
# Revision: 0
# Processed by: cddbd v1.4PL0 Copyright (c) Steve Scherf et al.
# Submitted via: ExactAudioCopy v0.90b4
#
DISCID=7f099c0b
DTITLE=New Grass Revival - Friday Night In America
DYEAR=1989
DGENRE=Bluegrass
TTITLE0=Friday Night In America
TTITLE1=You Plant Your Fields
TTITLE2=Lets Make A Baby King
TTITLE3=Do What You Gotta Do
TTITLE4=Let Me Be Your Man
TTITLE5=Lila
TTITLE6=Callin' Baton Rouge
TTITLE7=Whatever Way The Wind Blows
TTITLE8=Big Foot
TTITLE9=Angel Eyes
TTITLE10=I'm Down
EXTD=
EXTT0=
EXTT1=
EXTT2=
EXTT3=
EXTT4=
EXTT5=
EXTT6=
EXTT7=
EXTT8=
EXTT9=
EXTT10=
PLAYORDER=
